<?xml version="1.0" encoding="utf-8"?>
<!-- Generator: Adobe Illustrator 24.3.0, SVG Export Plug-In . SVG Version: 6.00 Build 0)  -->
<svg version="1.1" id="Layer_1" xmlns="http://www.w3.org/2000/svg" xmlns:xlink="http://www.w3.org/1999/xlink" x="0px" y="0px"
	 viewBox="0 0 104.6 100.3" style="enable-background:new 0 0 104.6 100.3;" xml:space="preserve">
<style type="text/css">
	.st0{fill:#103558;}
	.st1{fill:#E44A70;}
</style>
<path class="st0" d="M80.1,17.7H24.5c-3,0-5.4-2.4-5.4-5.4v0c0-3,2.4-5.4,5.4-5.4h55.6c3,0,5.4,2.4,5.4,5.4v0
	C85.5,15.2,83.1,17.7,80.1,17.7z"/>
<path class="st1" d="M85.5,78.6V23.1c0-3,2.4-5.4,5.4-5.4h0c3,0,5.4,2.4,5.4,5.4v55.6c0,3-2.4,5.4-5.4,5.4h0
	C87.9,84,85.5,81.6,85.5,78.6z"/>
<path class="st1" d="M8.4,78.6V23.1c0-3,2.4-5.4,5.4-5.4h0c3,0,5.4,2.4,5.4,5.4v55.6c0,3-2.4,5.4-5.4,5.4h0
	C10.8,84,8.4,81.6,8.4,78.6z"/>
<path class="st0" d="M80.2,82.7H24.6c-3,0-5.4,2.4-5.4,5.4v0c0,3,2.4,5.4,5.4,5.4h55.6c3,0,5.4-2.4,5.4-5.4v0
	C85.6,85.1,83.1,82.7,80.2,82.7z"/>
</svg>
